# Blender v2.78 (sub 0) OBJ File: 'cargo.blend'
# www.blender.org
mtllib cargo.mtl
o Cube.001
v -1.100000 -0.800520 1.150000
v -1.100000 -0.500520 1.150000
v -1.100000 -0.800520 1.050000
v -1.100000 -0.500520 1.050000
v 1.100000 -0.800520 1.150000
v 1.100000 -0.500520 1.150000
v 1.100000 -0.800520 1.050000
v 1.100000 -0.500520 1.050000
vn -1.0000 0.0000 0.0000
vn 0.0000 0.0000 -1.0000
vn 1.0000 0.0000 0.0000
vn 0.0000 0.0000 1.0000
vn 0.0000 -1.0000 0.0000
vn 0.0000 1.0000 0.0000
usemtl None
s off
f 1//1 2//1 4//1 3//1
f 3//2 4//2 8//2 7//2
f 7//3 8//3 6//3 5//3
f 5//4 6//4 2//4 1//4
f 3//5 7//5 5//5 1//5
f 8//6 4//6 2//6 6//6
o Cube
v 1.000000 -1.000000 -1.000000
v 1.000000 -1.000000 1.000000
v -1.000000 -1.000000 1.000000
v -0.999999 -1.000000 -1.000000
v 1.000000 1.000000 -0.999999
v 0.999999 1.000000 1.000001
v -1.000000 1.000000 1.000000
v -0.999999 1.000000 -1.000000
vn 0.0000 -1.0000 0.0000
vn 0.0000 1.0000 0.0000
vn 1.0000 0.0000 0.0000
vn -0.0000 -0.0000 1.0000
vn -1.0000 -0.0000 -0.0000
vn 0.0000 0.0000 -1.0000
usemtl Material
s off
f 9//7 10//7 11//7 12//7
f 13//8 16//8 15//8 14//8
f 9//9 13//9 14//9 10//9
f 10//10 14//10 15//10 11//10
f 11//11 15//11 16//11 12//11
f 13//12 9//12 12//12 16//12
o Cube.002
v -1.100000 0.510339 1.150000
v -1.100000 0.810339 1.150000
v -1.100000 0.510339 1.050000
v -1.100000 0.810339 1.050000
v 1.100000 0.510339 1.150000
v 1.100000 0.810339 1.150000
v 1.100000 0.510339 1.050000
v 1.100000 0.810339 1.050000
vn -1.0000 0.0000 0.0000
vn 0.0000 0.0000 -1.0000
vn 1.0000 0.0000 0.0000
vn 0.0000 0.0000 1.0000
vn 0.0000 -1.0000 0.0000
vn 0.0000 1.0000 0.0000
usemtl Material.001
s off
f 17//13 18//13 20//13 19//13
f 19//14 20//14 24//14 23//14
f 23//15 24//15 22//15 21//15
f 21//16 22//16 18//16 17//16
f 19//17 23//17 21//17 17//17
f 24//18 20//18 18//18 22//18
o Cube.003
v 1.150000 -0.800520 1.150000
v 1.150000 -0.500520 1.150000
v 1.050000 -0.800520 1.150000
v 1.050000 -0.500520 1.150000
v 1.150000 -0.800520 -1.150000
v 1.150000 -0.500520 -1.150000
v 1.050000 -0.800520 -1.150000
v 1.050000 -0.500520 -1.150000
vn 0.0000 0.0000 1.0000
vn -1.0000 0.0000 0.0000
vn 0.0000 0.0000 -1.0000
vn 1.0000 0.0000 -0.0000
vn 0.0000 -1.0000 -0.0000
vn 0.0000 1.0000 -0.0000
usemtl None
s off
f 25//19 26//19 28//19 27//19
f 27//20 28//20 32//20 31//20
f 31//21 32//21 30//21 29//21
f 29//22 30//22 26//22 25//22
f 27//23 31//23 29//23 25//23
f 32//24 28//24 26//24 30//24
o Cube.004
v -1.100000 0.501513 -1.050000
v -1.100000 0.801513 -1.050000
v -1.100000 0.501513 -1.150000
v -1.100000 0.801513 -1.150000
v 1.100000 0.501513 -1.050000
v 1.100000 0.801513 -1.050000
v 1.100000 0.501513 -1.150000
v 1.100000 0.801513 -1.150000
vn -1.0000 0.0000 0.0000
vn 0.0000 0.0000 -1.0000
vn 1.0000 0.0000 0.0000
vn 0.0000 0.0000 1.0000
vn 0.0000 -1.0000 0.0000
vn 0.0000 1.0000 0.0000
usemtl None
s off
f 33//25 34//25 36//25 35//25
f 35//26 36//26 40//26 39//26
f 39//27 40//27 38//27 37//27
f 37//28 38//28 34//28 33//28
f 35//29 39//29 37//29 33//29
f 40//30 36//30 34//30 38//30
o Cube.005
v -1.100000 -0.800520 -1.050000
v -1.100000 -0.500520 -1.050000
v -1.100000 -0.800520 -1.150000
v -1.100000 -0.500520 -1.150000
v 1.100000 -0.800520 -1.050000
v 1.100000 -0.500520 -1.050000
v 1.100000 -0.800520 -1.150000
v 1.100000 -0.500520 -1.150000
vn -1.0000 0.0000 0.0000
vn 0.0000 0.0000 -1.0000
vn 1.0000 0.0000 0.0000
vn 0.0000 0.0000 1.0000
vn 0.0000 -1.0000 0.0000
vn 0.0000 1.0000 0.0000
usemtl None
s off
f 41//31 42//31 44//31 43//31
f 43//32 44//32 48//32 47//32
f 47//33 48//33 46//33 45//33
f 45//34 46//34 42//34 41//34
f 43//35 47//35 45//35 41//35
f 48//36 44//36 42//36 46//36
o Cube.006
v 1.150000 0.501513 1.150000
v 1.150000 0.801513 1.150000
v 1.050000 0.501513 1.150000
v 1.050000 0.801513 1.150000
v 1.150000 0.501513 -1.150000
v 1.150000 0.801513 -1.150000
v 1.050000 0.501513 -1.150000
v 1.050000 0.801513 -1.150000
vn 0.0000 0.0000 1.0000
vn -1.0000 0.0000 0.0000
vn 0.0000 0.0000 -1.0000
vn 1.0000 0.0000 -0.0000
vn 0.0000 -1.0000 -0.0000
vn 0.0000 1.0000 -0.0000
usemtl None
s off
f 49//37 50//37 52//37 51//37
f 51//38 52//38 56//38 55//38
f 55//39 56//39 54//39 53//39
f 53//40 54//40 50//40 49//40
f 51//41 55//41 53//41 49//41
f 56//42 52//42 50//42 54//42
o Cube.007
v -1.050000 0.501513 1.150000
v -1.050000 0.801513 1.150000
v -1.150000 0.501513 1.150000
v -1.150000 0.801513 1.150000
v -1.050000 0.501513 -1.150000
v -1.050000 0.801513 -1.150000
v -1.150000 0.501513 -1.150000
v -1.150000 0.801513 -1.150000
vn 0.0000 0.0000 1.0000
vn -1.0000 0.0000 0.0000
vn 0.0000 0.0000 -1.0000
vn 1.0000 0.0000 -0.0000
vn 0.0000 -1.0000 -0.0000
vn 0.0000 1.0000 -0.0000
usemtl None
s off
f 57//43 58//43 60//43 59//43
f 59//44 60//44 64//44 63//44
f 63//45 64//45 62//45 61//45
f 61//46 62//46 58//46 57//46
f 59//47 63//47 61//47 57//47
f 64//48 60//48 58//48 62//48
o Cube.008
v -1.050000 -0.800520 1.150000
v -1.050000 -0.500520 1.150000
v -1.150000 -0.800520 1.150000
v -1.150000 -0.500520 1.150000
v -1.050000 -0.800520 -1.150000
v -1.050000 -0.500520 -1.150000
v -1.150000 -0.800520 -1.150000
v -1.150000 -0.500520 -1.150000
vn 0.0000 0.0000 1.0000
vn -1.0000 0.0000 0.0000
vn 0.0000 0.0000 -1.0000
vn 1.0000 0.0000 -0.0000
vn 0.0000 -1.0000 -0.0000
vn 0.0000 1.0000 -0.0000
usemtl None
s off
f 65//49 66//49 68//49 67//49
f 67//50 68//50 72//50 71//50
f 71//51 72//51 70//51 69//51
f 69//52 70//52 66//52 65//52
f 67//53 71//53 69//53 65//53
f 72//54 68//54 66//54 70//54
